<mxfile host="app.diagrams.net" modified="2024-07-15T09:14:02.582Z" agent="Mozilla/5.0 (Windows NT 10.0; Win64; x64) AppleWebKit/537.36 (KHTML, like Gecko) Chrome/126.0.0.0 Safari/537.36" etag="CuwyTnTeS74-YJd4dEg_" version="24.6.5" type="github">
  <diagram name="PÃ¡gina-1" id="vXgSD-A0frEvdJ6OFtTD">
    <mxGraphModel dx="1128" dy="639" grid="1" gridSize="10" guides="1" tooltips="1" connect="1" arrows="1" fold="1" page="1" pageScale="1" pageWidth="827" pageHeight="1169" math="0" shadow="0">
      <root>
        <mxCell id="0" />
        <mxCell id="1" parent="0" />
        <mxCell id="9" value="Snap Camera Client communicates with the Snap Camera Server (running in Docker)" style="whiteSpace=wrap;strokeWidth=2;verticalAlign=top;" parent="1" vertex="1">
          <mxGeometry x="391" y="440" width="605" height="104" as="geometry" />
        </mxCell>
        <mxCell id="10" value="Snap Camera Server" style="rounded=1;absoluteArcSize=1;arcSize=14;whiteSpace=wrap;strokeWidth=2;" parent="1" vertex="1">
          <mxGeometry x="613" y="475" width="159" height="34" as="geometry" />
        </mxCell>
        <mxCell id="11" value="User interacts with the Snap Camera Client" style="whiteSpace=wrap;strokeWidth=2;verticalAlign=top;" parent="1" vertex="1">
          <mxGeometry x="50" y="440" width="488" height="104" as="geometry" />
        </mxCell>
        <mxCell id="12" value="Snap Camera Client" style="whiteSpace=wrap;strokeWidth=2;" parent="1" vertex="1">
          <mxGeometry x="357" y="475" width="156" height="34" as="geometry" />
        </mxCell>
        <mxCell id="13" value="User" style="whiteSpace=wrap;strokeWidth=2;" parent="1" vertex="1">
          <mxGeometry x="167" y="475" width="48" height="34" as="geometry" />
        </mxCell>
        <mxCell id="14" value="" style="curved=1;startArrow=none;endArrow=block;exitX=1;exitY=0.5;entryX=0;entryY=0.5;" parent="1" source="13" target="12" edge="1">
          <mxGeometry relative="1" as="geometry">
            <Array as="points" />
          </mxGeometry>
        </mxCell>
        <mxCell id="15" value="" style="curved=1;startArrow=none;endArrow=block;exitX=1;exitY=0.5;entryX=0;entryY=0.5;" parent="1" source="12" target="10" edge="1">
          <mxGeometry relative="1" as="geometry">
            <Array as="points" />
          </mxGeometry>
        </mxCell>
        <mxCell id="2w8NCQrr8ORGI42MHcaV-18" value="&lt;font size=&quot;1&quot; style=&quot;&quot;&gt;&lt;b style=&quot;font-size: 13px;&quot;&gt;Snap Camera Server&lt;/b&gt;&lt;/font&gt;" style="rounded=0;whiteSpace=wrap;html=1;" vertex="1" parent="1">
          <mxGeometry x="155" y="130" width="150" height="70" as="geometry" />
        </mxCell>
        <mxCell id="2w8NCQrr8ORGI42MHcaV-19" value="User" style="shape=umlActor;verticalLabelPosition=bottom;verticalAlign=top;html=1;outlineConnect=0;" vertex="1" parent="1">
          <mxGeometry x="70" y="10" width="30" height="60" as="geometry" />
        </mxCell>
        <mxCell id="2w8NCQrr8ORGI42MHcaV-24" style="edgeStyle=orthogonalEdgeStyle;rounded=0;orthogonalLoop=1;jettySize=auto;html=1;endArrow=classic;endFill=1;startArrow=classic;startFill=1;" edge="1" parent="1" source="2w8NCQrr8ORGI42MHcaV-20" target="2w8NCQrr8ORGI42MHcaV-18">
          <mxGeometry relative="1" as="geometry" />
        </mxCell>
        <mxCell id="2w8NCQrr8ORGI42MHcaV-20" value="Snap Camera App" style="rounded=1;whiteSpace=wrap;html=1;" vertex="1" parent="1">
          <mxGeometry x="170" y="10" width="120" height="60" as="geometry" />
        </mxCell>
        <mxCell id="2w8NCQrr8ORGI42MHcaV-21" value="" style="endArrow=classic;startArrow=classic;html=1;rounded=0;entryX=0;entryY=0.5;entryDx=0;entryDy=0;" edge="1" parent="1" source="2w8NCQrr8ORGI42MHcaV-19" target="2w8NCQrr8ORGI42MHcaV-20">
          <mxGeometry width="50" height="50" relative="1" as="geometry">
            <mxPoint x="190" y="130" as="sourcePoint" />
            <mxPoint x="240" y="80" as="targetPoint" />
          </mxGeometry>
        </mxCell>
        <mxCell id="2w8NCQrr8ORGI42MHcaV-27" value="Oficial Snap Server" style="rounded=1;whiteSpace=wrap;html=1;" vertex="1" parent="1">
          <mxGeometry x="35" y="240" width="120" height="60" as="geometry" />
        </mxCell>
        <mxCell id="2w8NCQrr8ORGI42MHcaV-28" value="Jaku&#39;s Public Server" style="rounded=1;whiteSpace=wrap;html=1;" vertex="1" parent="1">
          <mxGeometry x="305" y="240" width="120" height="60" as="geometry" />
        </mxCell>
        <mxCell id="2w8NCQrr8ORGI42MHcaV-37" style="edgeStyle=orthogonalEdgeStyle;rounded=0;orthogonalLoop=1;jettySize=auto;html=1;entryX=1;entryY=0;entryDx=0;entryDy=0;exitX=0.5;exitY=0;exitDx=0;exitDy=0;" edge="1" parent="1" source="2w8NCQrr8ORGI42MHcaV-29" target="2w8NCQrr8ORGI42MHcaV-18">
          <mxGeometry relative="1" as="geometry">
            <mxPoint x="450" y="130" as="sourcePoint" />
            <Array as="points">
              <mxPoint x="450" y="135" />
              <mxPoint x="450" y="110" />
              <mxPoint x="305" y="110" />
            </Array>
          </mxGeometry>
        </mxCell>
        <mxCell id="2w8NCQrr8ORGI42MHcaV-29" value="Local Storage" style="rounded=1;whiteSpace=wrap;html=1;" vertex="1" parent="1">
          <mxGeometry x="391" y="135" width="120" height="60" as="geometry" />
        </mxCell>
        <mxCell id="2w8NCQrr8ORGI42MHcaV-36" value="" style="endArrow=classic;html=1;rounded=0;exitX=1;exitY=0.5;exitDx=0;exitDy=0;entryX=0;entryY=0.5;entryDx=0;entryDy=0;" edge="1" parent="1" source="2w8NCQrr8ORGI42MHcaV-18" target="2w8NCQrr8ORGI42MHcaV-29">
          <mxGeometry width="50" height="50" relative="1" as="geometry">
            <mxPoint x="340" y="300" as="sourcePoint" />
            <mxPoint x="390" y="250" as="targetPoint" />
          </mxGeometry>
        </mxCell>
      </root>
    </mxGraphModel>
  </diagram>
</mxfile>
